<svg xmlns="http://www.w3.org/2000/svg" viewBox="0 0 50 50"><defs><style>.cls-1{fill:#febe15;}.cls-2{fill:#fff;}.cls-3{fill:#010101;opacity:0.13;}</style></defs><title>Recurso 36</title><g id="Capa_2" data-name="Capa 2"><g id="Layer_2" data-name="Layer 2"><path class="cls-1" d="M50,25a25.05,25.05,0,0,1-.58,5.38c-.05.24-.11.49-.17.73A25.05,25.05,0,0,1,30.89,49.3l-.76.17A24.73,24.73,0,0,1,25,50,25,25,0,1,1,50,25Z"/><path class="cls-2" d="M28.73,25.77a6.42,6.42,0,0,1-3.55,1.32,7.36,7.36,0,0,0,2-1.92ZM28.82,17a3.25,3.25,0,0,0-1.3-2.56l-1.11,2.87,2.41.93A7.33,7.33,0,0,0,28.82,17Zm-2.73,1.14-.78,2,2.86,1.1a12.51,12.51,0,0,0,.55-2.12Zm-2.09-3a8.36,8.36,0,0,0-.84.92l2.42.93,1.11-2.87A3.3,3.3,0,0,0,24,15.17Zm-3.24,0,1.54.59a7.51,7.51,0,0,1,2-1.9A6.61,6.61,0,0,0,20.76,15.17Zm1.87,1.67a12.37,12.37,0,0,0-1,1.95l2.87,1.1.78-2Zm-2.63-1a6.48,6.48,0,0,0-1.27,1.85l2.05.79a13.26,13.26,0,0,1,1-1.95Zm1.3,3.79a12.62,12.62,0,0,0-.55,2.13l2.63,1,.78-2Zm-2.91-1.11a6.72,6.72,0,0,0-.29,2.22l1.8.69a13.25,13.25,0,0,1,.56-2.12Zm1.39,3.82-1.56-.6a6.32,6.32,0,0,0,.45,1.44A6.64,6.64,0,0,0,20,25.09,7.33,7.33,0,0,1,19.78,22.33Zm.86.33a8.54,8.54,0,0,0,0,1.24A3.33,3.33,0,0,0,22,26.47l1.11-2.88ZM25,21l-.78,2,2.63,1a12.37,12.37,0,0,0,1-1.95Zm-1.1,2.87-1.11,2.87a3.24,3.24,0,0,0,2.69-1,7.54,7.54,0,0,0,.84-.92Zm4.81-1.45a14.36,14.36,0,0,1-1,1.95l1.8.7a6.77,6.77,0,0,0,1.27-1.85Zm2.67-2.26-1.8-.69A12.28,12.28,0,0,1,29,21.63l2.07.8A6.52,6.52,0,0,0,31.37,20.2Zm-.12-1a6.83,6.83,0,0,0-.44-1.44,6.69,6.69,0,0,0-1.31-1.91,7.27,7.27,0,0,1,.19,2.75ZM33.89,24l-.09.23a9.83,9.83,0,0,1-8.37,6,.35.35,0,0,1,0,.14v3.93a19.91,19.91,0,0,1,6.42,1.24.5.5,0,0,1,.31.54.49.49,0,0,1-.48.39H18.25a.5.5,0,0,1-.24-.06h0a.46.46,0,0,1-.23-.33.49.49,0,0,1,.3-.54l.84-.29a19.69,19.69,0,0,1,5.52-1h.06V30.39a.27.27,0,0,1,0-.12l-.58,0a9.87,9.87,0,0,1-2.73-.61.5.5,0,0,1-.28-.63.48.48,0,0,1,.62-.27,9,9,0,0,0,3.32.58A8.85,8.85,0,0,0,33,23.64l.06-.17a8.91,8.91,0,0,0-1.86-9.06,8.89,8.89,0,0,0-3.29-2.21.48.48,0,0,1-.28-.62l.54-1.4a.48.48,0,0,1,.62-.27.48.48,0,0,1,.28.62l-.38,1A9.78,9.78,0,0,1,32,13.86,9.8,9.8,0,0,1,33.89,24Zm-1-3.51a8.13,8.13,0,1,0-8.12,8.12A8.13,8.13,0,0,0,32.86,20.47Zm-.93,0a7.2,7.2,0,1,1-7.19-7.19A7.2,7.2,0,0,1,31.93,20.47Z"/><path class="cls-3" d="M49.4,30.46l-.15.65A25.05,25.05,0,0,1,30.89,49.3h0L18,36.39a.1.1,0,0,0,.05,0h0a.46.46,0,0,0,.23.06H31.71a.48.48,0,0,0,.17-.93,19.91,19.91,0,0,0-6.42-1.24V30.39a.32.32,0,0,0,0-.14,9.8,9.8,0,0,0,8.37-6c0-.07.06-.15.1-.23a9.71,9.71,0,0,0-.2-7.5A9.48,9.48,0,0,0,32,13.86a9.78,9.78,0,0,0-3.3-2.36l.38-1A.48.48,0,0,0,29,10Z"/></g></g></svg>